<svg width="39" height="39" viewBox="0 0 39 39" fill="none" xmlns="http://www.w3.org/2000/svg">
<path d="M21.7913 19.5001L28.7788 12.5288C29.0848 12.2228 29.2567 11.8078 29.2567 11.3751C29.2567 10.9423 29.0848 10.5273 28.7788 10.2213C28.4728 9.91531 28.0578 9.74341 27.625 9.74341C27.1923 9.74341 26.7773 9.91531 26.4713 10.2213L19.5 17.2088L12.5288 10.2213C12.2228 9.91531 11.8078 9.74341 11.375 9.74341C10.9423 9.74341 10.5273 9.91531 10.2213 10.2213C9.91528 10.5273 9.74337 10.9423 9.74337 11.3751C9.74337 11.8078 9.91528 12.2228 10.2213 12.5288L17.2088 19.5001L10.2213 26.4713C10.069 26.6224 9.94807 26.8021 9.86557 27.0001C9.78308 27.1981 9.7406 27.4105 9.7406 27.6251C9.7406 27.8396 9.78308 28.052 9.86557 28.25C9.94807 28.448 10.069 28.6277 10.2213 28.7788C10.3723 28.9311 10.5521 29.052 10.7501 29.1345C10.9481 29.217 11.1605 29.2595 11.375 29.2595C11.5895 29.2595 11.8019 29.217 12 29.1345C12.198 29.052 12.3777 28.9311 12.5288 28.7788L19.5 21.7913L26.4713 28.7788C26.6223 28.9311 26.8021 29.052 27.0001 29.1345C27.1981 29.217 27.4105 29.2595 27.625 29.2595C27.8395 29.2595 28.0519 29.217 28.25 29.1345C28.448 29.052 28.6277 28.9311 28.7788 28.7788C28.9311 28.6277 29.052 28.448 29.1345 28.25C29.217 28.052 29.2594 27.8396 29.2594 27.6251C29.2594 27.4105 29.217 27.1981 29.1345 27.0001C29.052 26.8021 28.9311 26.6224 28.7788 26.4713L21.7913 19.5001Z" fill="#39515E"/>
</svg>
